<svg width="31" height="51" viewBox="0 0 31 51" fill="none" xmlns="http://www.w3.org/2000/svg">
<g clip-path="url(#clip0_2_4)">
<path d="M30.0894 35.9988C31.3003 37.2439 31.3003 39.261 30.0894 40.5061C29.4887 41.1287 28.6944 41.4375 27.9 41.4375C27.1056 41.4375 26.3132 41.1262 25.7087 40.5037L15.5 30.0123L5.29228 40.5012C4.68681 41.1287 3.89341 41.4375 3.1 41.4375C2.30659 41.4375 1.51416 41.1287 0.908203 40.5012C-0.302734 39.256 -0.302734 37.239 0.908203 35.9938L11.1188 25.495L0.908203 15.0012C-0.302734 13.7561 -0.302734 11.739 0.908203 10.4938C2.11914 9.24873 4.08086 9.24873 5.2918 10.4938L15.5 20.9977L25.7106 10.4988C26.9216 9.25371 28.8833 9.25371 30.0942 10.4988C31.3052 11.7439 31.3052 13.761 30.0942 15.0061L19.8836 25.505L30.0894 35.9988Z" fill="#E5E5E5"/>
</g>
<defs>
<clipPath id="clip0_2_4">
<rect width="31" height="51" fill="white"/>
</clipPath>
</defs>
</svg>
