<svg width="38" height="29" viewBox="0 0 38 29" fill="none" xmlns="http://www.w3.org/2000/svg">
<path d="M0 2.41667C0 1.08221 1.06355 0 2.375 0H30.875C32.1887 0 33.25 1.08221 33.25 2.41667C33.25 3.75339 32.1887 4.83333 30.875 4.83333H2.375C1.06355 4.83333 0 3.75339 0 2.41667ZM4.75 14.5C4.75 13.1633 5.81355 12.0833 7.125 12.0833H35.625C36.9387 12.0833 38 13.1633 38 14.5C38 15.8367 36.9387 16.9167 35.625 16.9167H7.125C5.81355 16.9167 4.75 15.8367 4.75 14.5ZM30.875 29H2.375C1.06355 29 0 27.9201 0 26.5833C0 25.2466 1.06355 24.1667 2.375 24.1667H30.875C32.1887 24.1667 33.25 25.2466 33.25 26.5833C33.25 27.9201 32.1887 29 30.875 29Z" fill="#E5E5E5"/>
</svg>
